<?xml version="1.0" encoding="UTF-8"?><svg xmlns="http://www.w3.org/2000/svg" xmlns:xlink="http://www.w3.org/1999/xlink" fill-opacity="1" color-rendering="auto" color-interpolation="auto" text-rendering="auto" stroke="black" stroke-linecap="square" width="888" stroke-miterlimit="10" shape-rendering="auto" stroke-opacity="1" fill="black" stroke-dasharray="none" font-weight="normal" stroke-width="1" height="259" font-family="'Dialog'" font-style="normal" stroke-linejoin="miter" font-size="12px" stroke-dashoffset="0" image-rendering="auto">
  <!--Generated by ySVG 2.5-->
  <defs id="genericDefs"/>
  <g>
    <defs id="defs1">
      <clipPath clipPathUnits="userSpaceOnUse" id="clipPath1">
        <path d="M0 0 L888 0 L888 259 L0 259 L0 0 Z"/>
      </clipPath>
      <clipPath clipPathUnits="userSpaceOnUse" id="clipPath2">
        <path d="M-1369 -437 L-481 -437 L-481 -178 L-1369 -178 L-1369 -437 Z"/>
      </clipPath>
    </defs>
    <g fill="white" text-rendering="geometricPrecision" shape-rendering="geometricPrecision" transform="translate(1369,437)" stroke="white">
      <rect x="-1369" width="888" height="259" y="-437" clip-path="url(#clipPath2)" stroke="none"/>
    </g>
    <g fill="white" text-rendering="geometricPrecision" shape-rendering="geometricPrecision" transform="matrix(1,0,0,1,1369,437)" stroke="white">
      <rect x="-1353.7914" width="9.1692" height="30" y="-223.9529" clip-path="url(#clipPath2)" stroke="none"/>
    </g>
    <g text-rendering="geometricPrecision" stroke-miterlimit="1.45" shape-rendering="geometricPrecision" transform="matrix(1,0,0,1,1369,437)" stroke-linecap="butt">
      <rect fill="none" x="-1353.7914" width="9.1692" height="30" y="-223.9529" clip-path="url(#clipPath2)"/>
    </g>
    <g fill="white" text-rendering="geometricPrecision" shape-rendering="geometricPrecision" transform="matrix(1,0,0,1,1369,437)" stroke="white">
      <rect x="-1299.5984" width="30" height="30" y="-223.9529" clip-path="url(#clipPath2)" stroke="none"/>
    </g>
    <g text-rendering="geometricPrecision" stroke-miterlimit="1.45" shape-rendering="geometricPrecision" font-family="sans-serif" transform="matrix(1,0,0,1,1369,437)" stroke-linecap="butt">
      <text x="-1292.2332" xml:space="preserve" y="-204.7986" clip-path="url(#clipPath2)" stroke="none">27</text>
      <rect fill="none" x="-1299.5984" width="30" height="30" y="-223.9529" clip-path="url(#clipPath2)"/>
    </g>
    <g fill="white" text-rendering="geometricPrecision" shape-rendering="geometricPrecision" transform="matrix(1,0,0,1,1369,437)" stroke="white">
      <rect x="-1342.6706" width="30" height="30" y="-223.9529" clip-path="url(#clipPath2)" stroke="none"/>
    </g>
    <g text-rendering="geometricPrecision" stroke-miterlimit="1.45" shape-rendering="geometricPrecision" font-family="sans-serif" transform="matrix(1,0,0,1,1369,437)" stroke-linecap="butt">
      <text x="-1335.3054" xml:space="preserve" y="-204.7986" clip-path="url(#clipPath2)" stroke="none">25</text>
      <rect fill="none" x="-1342.6706" width="30" height="30" y="-223.9529" clip-path="url(#clipPath2)"/>
    </g>
    <g fill="white" text-rendering="geometricPrecision" shape-rendering="geometricPrecision" transform="matrix(1,0,0,1,1369,437)" stroke="white">
      <rect x="-1310.7191" width="9.1692" height="30" y="-223.9529" clip-path="url(#clipPath2)" stroke="none"/>
    </g>
    <g text-rendering="geometricPrecision" stroke-miterlimit="1.45" shape-rendering="geometricPrecision" transform="matrix(1,0,0,1,1369,437)" stroke-linecap="butt">
      <rect fill="none" x="-1310.7191" width="9.1692" height="30" y="-223.9529" clip-path="url(#clipPath2)"/>
    </g>
    <g fill="white" text-rendering="geometricPrecision" shape-rendering="geometricPrecision" transform="matrix(1,0,0,1,1369,437)" stroke="white">
      <rect x="-667.1488" width="30" height="30" y="-223.9529" clip-path="url(#clipPath2)" stroke="none"/>
    </g>
    <g text-rendering="geometricPrecision" stroke-miterlimit="1.45" shape-rendering="geometricPrecision" font-family="sans-serif" transform="matrix(1,0,0,1,1369,437)" stroke-linecap="butt">
      <text x="-663.601" xml:space="preserve" y="-204.7986" clip-path="url(#clipPath2)" stroke="none">107</text>
      <rect fill="none" x="-667.1488" width="30" height="30" y="-223.9529" clip-path="url(#clipPath2)"/>
    </g>
    <g fill="white" text-rendering="geometricPrecision" shape-rendering="geometricPrecision" transform="matrix(1,0,0,1,1369,437)" stroke="white">
      <rect x="-624.0766" width="30" height="30" y="-223.9529" clip-path="url(#clipPath2)" stroke="none"/>
    </g>
    <g text-rendering="geometricPrecision" stroke-miterlimit="1.45" shape-rendering="geometricPrecision" font-family="sans-serif" transform="matrix(1,0,0,1,1369,437)" stroke-linecap="butt">
      <text x="-620.5287" xml:space="preserve" y="-204.7986" clip-path="url(#clipPath2)" stroke="none">117</text>
      <rect fill="none" x="-624.0766" width="30" height="30" y="-223.9529" clip-path="url(#clipPath2)"/>
    </g>
    <g fill="white" text-rendering="geometricPrecision" shape-rendering="geometricPrecision" transform="matrix(1,0,0,1,1369,437)" stroke="white">
      <rect x="-635.1973" width="9.1692" height="30" y="-223.9529" clip-path="url(#clipPath2)" stroke="none"/>
    </g>
    <g text-rendering="geometricPrecision" stroke-miterlimit="1.45" shape-rendering="geometricPrecision" transform="matrix(1,0,0,1,1369,437)" stroke-linecap="butt">
      <rect fill="none" x="-635.1973" width="9.1692" height="30" y="-223.9529" clip-path="url(#clipPath2)"/>
    </g>
    <g fill="white" text-rendering="geometricPrecision" shape-rendering="geometricPrecision" transform="matrix(1,0,0,1,1369,437)" stroke="white">
      <rect x="-678.2695" width="9.1692" height="30" y="-223.9529" clip-path="url(#clipPath2)" stroke="none"/>
    </g>
    <g text-rendering="geometricPrecision" stroke-miterlimit="1.45" shape-rendering="geometricPrecision" transform="matrix(1,0,0,1,1369,437)" stroke-linecap="butt">
      <rect fill="none" x="-678.2695" width="9.1692" height="30" y="-223.9529" clip-path="url(#clipPath2)"/>
    </g>
    <g fill="white" text-rendering="geometricPrecision" shape-rendering="geometricPrecision" transform="matrix(1,0,0,1,1369,437)" stroke="white">
      <rect x="-1256.5262" width="30" height="30" y="-223.9529" clip-path="url(#clipPath2)" stroke="none"/>
    </g>
    <g text-rendering="geometricPrecision" stroke-miterlimit="1.45" shape-rendering="geometricPrecision" font-family="sans-serif" transform="matrix(1,0,0,1,1369,437)" stroke-linecap="butt">
      <text x="-1249.1609" xml:space="preserve" y="-204.7986" clip-path="url(#clipPath2)" stroke="none">42</text>
      <rect fill="none" x="-1256.5262" width="30" height="30" y="-223.9529" clip-path="url(#clipPath2)"/>
    </g>
    <g fill="white" text-rendering="geometricPrecision" shape-rendering="geometricPrecision" transform="matrix(1,0,0,1,1369,437)" stroke="white">
      <rect x="-1267.6469" width="9.1692" height="30" y="-223.9529" clip-path="url(#clipPath2)" stroke="none"/>
    </g>
    <g text-rendering="geometricPrecision" stroke-miterlimit="1.45" shape-rendering="geometricPrecision" transform="matrix(1,0,0,1,1369,437)" stroke-linecap="butt">
      <rect fill="none" x="-1267.6469" width="9.1692" height="30" y="-223.9529" clip-path="url(#clipPath2)"/>
    </g>
    <g fill="white" text-rendering="geometricPrecision" shape-rendering="geometricPrecision" transform="matrix(1,0,0,1,1369,437)" stroke="white">
      <rect x="-1213.454" width="30" height="30" y="-223.9529" clip-path="url(#clipPath2)" stroke="none"/>
    </g>
    <g text-rendering="geometricPrecision" stroke-miterlimit="1.45" shape-rendering="geometricPrecision" font-family="sans-serif" transform="matrix(1,0,0,1,1369,437)" stroke-linecap="butt">
      <text x="-1206.0887" xml:space="preserve" y="-204.7986" clip-path="url(#clipPath2)" stroke="none">44</text>
      <rect fill="none" x="-1213.454" width="30" height="30" y="-223.9529" clip-path="url(#clipPath2)"/>
    </g>
    <g fill="white" text-rendering="geometricPrecision" shape-rendering="geometricPrecision" transform="matrix(1,0,0,1,1369,437)" stroke="white">
      <rect x="-1224.5747" width="9.1692" height="30" y="-223.9529" clip-path="url(#clipPath2)" stroke="none"/>
    </g>
    <g text-rendering="geometricPrecision" stroke-miterlimit="1.45" shape-rendering="geometricPrecision" transform="matrix(1,0,0,1,1369,437)" stroke-linecap="butt">
      <rect fill="none" x="-1224.5747" width="9.1692" height="30" y="-223.9529" clip-path="url(#clipPath2)"/>
    </g>
    <g fill="white" text-rendering="geometricPrecision" shape-rendering="geometricPrecision" transform="matrix(1,0,0,1,1369,437)" stroke="white">
      <rect x="-1181.5025" width="9.1692" height="30" y="-223.9529" clip-path="url(#clipPath2)" stroke="none"/>
    </g>
    <g text-rendering="geometricPrecision" stroke-miterlimit="1.45" shape-rendering="geometricPrecision" transform="matrix(1,0,0,1,1369,437)" stroke-linecap="butt">
      <rect fill="none" x="-1181.5025" width="9.1692" height="30" y="-223.9529" clip-path="url(#clipPath2)"/>
    </g>
    <g fill="white" text-rendering="geometricPrecision" shape-rendering="geometricPrecision" transform="matrix(1,0,0,1,1369,437)" stroke="white">
      <rect x="-592.1251" width="9.1692" height="30" y="-223.9529" clip-path="url(#clipPath2)" stroke="none"/>
    </g>
    <g text-rendering="geometricPrecision" stroke-miterlimit="1.45" shape-rendering="geometricPrecision" transform="matrix(1,0,0,1,1369,437)" stroke-linecap="butt">
      <rect fill="none" x="-592.1251" width="9.1692" height="30" y="-223.9529" clip-path="url(#clipPath2)"/>
    </g>
    <g fill="white" text-rendering="geometricPrecision" shape-rendering="geometricPrecision" transform="matrix(1,0,0,1,1369,437)" stroke="white">
      <rect x="-537.9321" width="30" height="30" y="-223.9529" clip-path="url(#clipPath2)" stroke="none"/>
    </g>
    <g text-rendering="geometricPrecision" stroke-miterlimit="1.45" shape-rendering="geometricPrecision" transform="matrix(1,0,0,1,1369,437)" stroke-linecap="butt">
      <rect fill="none" x="-537.9321" width="30" height="30" y="-223.9529" clip-path="url(#clipPath2)"/>
    </g>
    <g fill="white" text-rendering="geometricPrecision" shape-rendering="geometricPrecision" transform="matrix(1,0,0,1,1369,437)" stroke="white">
      <rect x="-581.0044" width="30" height="30" y="-223.9529" clip-path="url(#clipPath2)" stroke="none"/>
    </g>
    <g text-rendering="geometricPrecision" stroke-miterlimit="1.45" shape-rendering="geometricPrecision" transform="matrix(1,0,0,1,1369,437)" stroke-linecap="butt">
      <rect fill="none" x="-581.0044" width="30" height="30" y="-223.9529" clip-path="url(#clipPath2)"/>
    </g>
    <g fill="white" text-rendering="geometricPrecision" shape-rendering="geometricPrecision" transform="matrix(1,0,0,1,1369,437)" stroke="white">
      <rect x="-549.0529" width="9.1692" height="30" y="-223.9529" clip-path="url(#clipPath2)" stroke="none"/>
    </g>
    <g text-rendering="geometricPrecision" stroke-miterlimit="1.45" shape-rendering="geometricPrecision" transform="matrix(1,0,0,1,1369,437)" stroke-linecap="butt">
      <rect fill="none" x="-549.0529" width="9.1692" height="30" y="-223.9529" clip-path="url(#clipPath2)"/>
    </g>
    <g fill="white" text-rendering="geometricPrecision" shape-rendering="geometricPrecision" transform="matrix(1,0,0,1,1369,437)" stroke="white">
      <rect x="-505.9806" width="9.1692" height="30" y="-223.9529" clip-path="url(#clipPath2)" stroke="none"/>
    </g>
    <g text-rendering="geometricPrecision" stroke-miterlimit="1.45" shape-rendering="geometricPrecision" transform="matrix(1,0,0,1,1369,437)" stroke-linecap="butt">
      <rect fill="none" x="-505.9806" width="9.1692" height="30" y="-223.9529" clip-path="url(#clipPath2)"/>
    </g>
    <g fill="white" text-rendering="geometricPrecision" shape-rendering="geometricPrecision" transform="matrix(1,0,0,1,1369,437)" stroke="white">
      <rect x="-1054.9333" width="30" height="30" y="-223.9529" clip-path="url(#clipPath2)" stroke="none"/>
    </g>
    <g text-rendering="geometricPrecision" stroke-miterlimit="1.45" shape-rendering="geometricPrecision" font-family="sans-serif" transform="matrix(1,0,0,1,1369,437)" stroke-linecap="butt">
      <text x="-1047.5681" xml:space="preserve" y="-204.7986" clip-path="url(#clipPath2)" stroke="none">61</text>
      <rect fill="none" x="-1054.9333" width="30" height="30" y="-223.9529" clip-path="url(#clipPath2)"/>
    </g>
    <g fill="white" text-rendering="geometricPrecision" shape-rendering="geometricPrecision" transform="matrix(1,0,0,1,1369,437)" stroke="white">
      <rect x="-1098.0056" width="30" height="30" y="-223.9529" clip-path="url(#clipPath2)" stroke="none"/>
    </g>
    <g text-rendering="geometricPrecision" stroke-miterlimit="1.45" shape-rendering="geometricPrecision" font-family="sans-serif" transform="matrix(1,0,0,1,1369,437)" stroke-linecap="butt">
      <text x="-1090.6404" xml:space="preserve" y="-204.7986" clip-path="url(#clipPath2)" stroke="none">57</text>
      <rect fill="none" x="-1098.0056" width="30" height="30" y="-223.9529" clip-path="url(#clipPath2)"/>
    </g>
    <g fill="white" text-rendering="geometricPrecision" shape-rendering="geometricPrecision" transform="matrix(1,0,0,1,1369,437)" stroke="white">
      <rect x="-1109.1263" width="9.1692" height="30" y="-223.9529" clip-path="url(#clipPath2)" stroke="none"/>
    </g>
    <g text-rendering="geometricPrecision" stroke-miterlimit="1.45" shape-rendering="geometricPrecision" transform="matrix(1,0,0,1,1369,437)" stroke-linecap="butt">
      <rect fill="none" x="-1109.1263" width="9.1692" height="30" y="-223.9529" clip-path="url(#clipPath2)"/>
    </g>
    <g fill="white" text-rendering="geometricPrecision" shape-rendering="geometricPrecision" transform="matrix(1,0,0,1,1369,437)" stroke="white">
      <rect x="-1066.0541" width="9.1692" height="30" y="-223.9529" clip-path="url(#clipPath2)" stroke="none"/>
    </g>
    <g text-rendering="geometricPrecision" stroke-miterlimit="1.45" shape-rendering="geometricPrecision" transform="matrix(1,0,0,1,1369,437)" stroke-linecap="butt">
      <rect fill="none" x="-1066.0541" width="9.1692" height="30" y="-223.9529" clip-path="url(#clipPath2)"/>
    </g>
    <g fill="white" text-rendering="geometricPrecision" shape-rendering="geometricPrecision" transform="matrix(1,0,0,1,1369,437)" stroke="white">
      <rect x="-1022.9818" width="9.1692" height="30" y="-223.9529" clip-path="url(#clipPath2)" stroke="none"/>
    </g>
    <g text-rendering="geometricPrecision" stroke-miterlimit="1.45" shape-rendering="geometricPrecision" transform="matrix(1,0,0,1,1369,437)" stroke-linecap="butt">
      <rect fill="none" x="-1022.9818" width="9.1692" height="30" y="-223.9529" clip-path="url(#clipPath2)"/>
    </g>
    <g fill="white" text-rendering="geometricPrecision" shape-rendering="geometricPrecision" transform="matrix(1,0,0,1,1369,437)" stroke="white">
      <rect x="-1011.4325" width="30" height="30" y="-223.9529" clip-path="url(#clipPath2)" stroke="none"/>
    </g>
    <g text-rendering="geometricPrecision" stroke-miterlimit="1.45" shape-rendering="geometricPrecision" transform="matrix(1,0,0,1,1369,437)" stroke-linecap="butt">
      <rect fill="none" x="-1011.4325" width="30" height="30" y="-223.9529" clip-path="url(#clipPath2)"/>
    </g>
    <g fill="white" text-rendering="geometricPrecision" shape-rendering="geometricPrecision" transform="matrix(1,0,0,1,1369,437)" stroke="white">
      <rect x="-979.481" width="9.1692" height="30" y="-223.9529" clip-path="url(#clipPath2)" stroke="none"/>
    </g>
    <g text-rendering="geometricPrecision" stroke-miterlimit="1.45" shape-rendering="geometricPrecision" transform="matrix(1,0,0,1,1369,437)" stroke-linecap="butt">
      <rect fill="none" x="-979.481" width="9.1692" height="30" y="-223.9529" clip-path="url(#clipPath2)"/>
    </g>
    <g fill="white" text-rendering="geometricPrecision" shape-rendering="geometricPrecision" transform="matrix(1,0,0,1,1369,437)" stroke="white">
      <rect x="-968.3602" width="30" height="30" y="-223.9529" clip-path="url(#clipPath2)" stroke="none"/>
    </g>
    <g text-rendering="geometricPrecision" stroke-miterlimit="1.45" shape-rendering="geometricPrecision" transform="matrix(1,0,0,1,1369,437)" stroke-linecap="butt">
      <rect fill="none" x="-968.3602" width="30" height="30" y="-223.9529" clip-path="url(#clipPath2)"/>
    </g>
    <g fill="white" text-rendering="geometricPrecision" shape-rendering="geometricPrecision" transform="matrix(1,0,0,1,1369,437)" stroke="white">
      <rect x="-936.4087" width="9.1692" height="30" y="-223.9529" clip-path="url(#clipPath2)" stroke="none"/>
    </g>
    <g text-rendering="geometricPrecision" stroke-miterlimit="1.45" shape-rendering="geometricPrecision" transform="matrix(1,0,0,1,1369,437)" stroke-linecap="butt">
      <rect fill="none" x="-936.4087" width="9.1692" height="30" y="-223.9529" clip-path="url(#clipPath2)"/>
    </g>
    <g fill="white" text-rendering="geometricPrecision" shape-rendering="geometricPrecision" transform="matrix(1,0,0,1,1369,437)" stroke="white">
      <rect x="-889.7276" width="9.1692" height="30" y="-223.9529" clip-path="url(#clipPath2)" stroke="none"/>
    </g>
    <g text-rendering="geometricPrecision" stroke-miterlimit="1.45" shape-rendering="geometricPrecision" transform="matrix(1,0,0,1,1369,437)" stroke-linecap="butt">
      <rect fill="none" x="-889.7276" width="9.1692" height="30" y="-223.9529" clip-path="url(#clipPath2)"/>
    </g>
    <g fill="white" text-rendering="geometricPrecision" shape-rendering="geometricPrecision" transform="matrix(1,0,0,1,1369,437)" stroke="white">
      <rect x="-835.5347" width="30" height="30" y="-223.9529" clip-path="url(#clipPath2)" stroke="none"/>
    </g>
    <g text-rendering="geometricPrecision" stroke-miterlimit="1.45" shape-rendering="geometricPrecision" font-family="sans-serif" transform="matrix(1,0,0,1,1369,437)" stroke-linecap="butt">
      <text x="-828.1695" xml:space="preserve" y="-204.7986" clip-path="url(#clipPath2)" stroke="none">87</text>
      <rect fill="none" x="-835.5347" width="30" height="30" y="-223.9529" clip-path="url(#clipPath2)"/>
    </g>
    <g fill="white" text-rendering="geometricPrecision" shape-rendering="geometricPrecision" transform="matrix(1,0,0,1,1369,437)" stroke="white">
      <rect x="-878.6069" width="30" height="30" y="-223.9529" clip-path="url(#clipPath2)" stroke="none"/>
    </g>
    <g text-rendering="geometricPrecision" stroke-miterlimit="1.45" shape-rendering="geometricPrecision" font-family="sans-serif" transform="matrix(1,0,0,1,1369,437)" stroke-linecap="butt">
      <text x="-871.2417" xml:space="preserve" y="-204.7986" clip-path="url(#clipPath2)" stroke="none">72</text>
      <rect fill="none" x="-878.6069" width="30" height="30" y="-223.9529" clip-path="url(#clipPath2)"/>
    </g>
    <g fill="white" text-rendering="geometricPrecision" shape-rendering="geometricPrecision" transform="matrix(1,0,0,1,1369,437)" stroke="white">
      <rect x="-846.6554" width="9.1692" height="30" y="-223.9529" clip-path="url(#clipPath2)" stroke="none"/>
    </g>
    <g text-rendering="geometricPrecision" stroke-miterlimit="1.45" shape-rendering="geometricPrecision" transform="matrix(1,0,0,1,1369,437)" stroke-linecap="butt">
      <rect fill="none" x="-846.6554" width="9.1692" height="30" y="-223.9529" clip-path="url(#clipPath2)"/>
    </g>
    <g fill="white" text-rendering="geometricPrecision" shape-rendering="geometricPrecision" transform="matrix(1,0,0,1,1369,437)" stroke="white">
      <rect x="-803.5832" width="9.1692" height="30" y="-223.9529" clip-path="url(#clipPath2)" stroke="none"/>
    </g>
    <g text-rendering="geometricPrecision" stroke-miterlimit="1.45" shape-rendering="geometricPrecision" transform="matrix(1,0,0,1,1369,437)" stroke-linecap="butt">
      <rect fill="none" x="-803.5832" width="9.1692" height="30" y="-223.9529" clip-path="url(#clipPath2)"/>
    </g>
    <g fill="white" text-rendering="geometricPrecision" shape-rendering="geometricPrecision" transform="matrix(1,0,0,1,1369,437)" stroke="white">
      <rect x="-749.3903" width="30" height="30" y="-223.9529" clip-path="url(#clipPath2)" stroke="none"/>
    </g>
    <g text-rendering="geometricPrecision" stroke-miterlimit="1.45" shape-rendering="geometricPrecision" transform="matrix(1,0,0,1,1369,437)" stroke-linecap="butt">
      <rect fill="none" x="-749.3903" width="30" height="30" y="-223.9529" clip-path="url(#clipPath2)"/>
    </g>
    <g fill="white" text-rendering="geometricPrecision" shape-rendering="geometricPrecision" transform="matrix(1,0,0,1,1369,437)" stroke="white">
      <rect x="-792.4625" width="30" height="30" y="-223.9529" clip-path="url(#clipPath2)" stroke="none"/>
    </g>
    <g text-rendering="geometricPrecision" stroke-miterlimit="1.45" shape-rendering="geometricPrecision" font-family="sans-serif" transform="matrix(1,0,0,1,1369,437)" stroke-linecap="butt">
      <text x="-785.0972" xml:space="preserve" y="-204.7986" clip-path="url(#clipPath2)" stroke="none">92</text>
      <rect fill="none" x="-792.4625" width="30" height="30" y="-223.9529" clip-path="url(#clipPath2)"/>
    </g>
    <g fill="white" text-rendering="geometricPrecision" shape-rendering="geometricPrecision" transform="matrix(1,0,0,1,1369,437)" stroke="white">
      <rect x="-760.511" width="9.1692" height="30" y="-223.9529" clip-path="url(#clipPath2)" stroke="none"/>
    </g>
    <g text-rendering="geometricPrecision" stroke-miterlimit="1.45" shape-rendering="geometricPrecision" transform="matrix(1,0,0,1,1369,437)" stroke-linecap="butt">
      <rect fill="none" x="-760.511" width="9.1692" height="30" y="-223.9529" clip-path="url(#clipPath2)"/>
    </g>
    <g fill="white" text-rendering="geometricPrecision" shape-rendering="geometricPrecision" transform="matrix(1,0,0,1,1369,437)" stroke="white">
      <rect x="-717.4388" width="9.1692" height="30" y="-223.9529" clip-path="url(#clipPath2)" stroke="none"/>
    </g>
    <g text-rendering="geometricPrecision" stroke-miterlimit="1.45" shape-rendering="geometricPrecision" transform="matrix(1,0,0,1,1369,437)" stroke-linecap="butt">
      <rect fill="none" x="-717.4388" width="9.1692" height="30" y="-223.9529" clip-path="url(#clipPath2)"/>
    </g>
    <g fill="white" text-rendering="geometricPrecision" shape-rendering="geometricPrecision" transform="matrix(1,0,0,1,1369,437)" stroke="white">
      <rect x="-1011.8611" width="30" height="30" y="-421.2644" clip-path="url(#clipPath2)" stroke="none"/>
    </g>
    <g text-rendering="geometricPrecision" stroke-miterlimit="1.45" shape-rendering="geometricPrecision" font-family="sans-serif" transform="matrix(1,0,0,1,1369,437)" stroke-linecap="butt">
      <text x="-1004.4959" xml:space="preserve" y="-402.1101" clip-path="url(#clipPath2)" stroke="none">47</text>
      <rect fill="none" x="-1011.8611" width="30" height="30" y="-421.2644" clip-path="url(#clipPath2)"/>
    </g>
    <g fill="white" text-rendering="geometricPrecision" shape-rendering="geometricPrecision" transform="matrix(1,0,0,1,1369,437)" stroke="white">
      <rect x="-882.2158" width="30" height="30" y="-421.2644" clip-path="url(#clipPath2)" stroke="none"/>
    </g>
    <g text-rendering="geometricPrecision" stroke-miterlimit="1.45" shape-rendering="geometricPrecision" transform="matrix(1,0,0,1,1369,437)" stroke-linecap="butt">
      <rect fill="none" x="-882.2158" width="30" height="30" y="-421.2644" clip-path="url(#clipPath2)"/>
    </g>
    <g fill="white" text-rendering="geometricPrecision" shape-rendering="geometricPrecision" transform="matrix(1,0,0,1,1369,437)" stroke="white">
      <rect x="-850.2643" width="9.1692" height="30" y="-421.2644" clip-path="url(#clipPath2)" stroke="none"/>
    </g>
    <g text-rendering="geometricPrecision" stroke-miterlimit="1.45" shape-rendering="geometricPrecision" transform="matrix(1,0,0,1,1369,437)" stroke-linecap="butt">
      <rect fill="none" x="-850.2643" width="9.1692" height="30" y="-421.2644" clip-path="url(#clipPath2)"/>
    </g>
    <g fill="white" text-rendering="geometricPrecision" shape-rendering="geometricPrecision" transform="matrix(1,0,0,1,1369,437)" stroke="white">
      <rect x="-1022.9818" width="9.1692" height="30" y="-421.2644" clip-path="url(#clipPath2)" stroke="none"/>
    </g>
    <g text-rendering="geometricPrecision" stroke-miterlimit="1.45" shape-rendering="geometricPrecision" transform="matrix(1,0,0,1,1369,437)" stroke-linecap="butt">
      <rect fill="none" x="-1022.9818" width="9.1692" height="30" y="-421.2644" clip-path="url(#clipPath2)"/>
    </g>
    <g fill="white" text-rendering="geometricPrecision" shape-rendering="geometricPrecision" transform="matrix(1,0,0,1,1369,437)" stroke="white">
      <rect x="-979.9096" width="9.1692" height="30" y="-421.2644" clip-path="url(#clipPath2)" stroke="none"/>
    </g>
    <g text-rendering="geometricPrecision" stroke-miterlimit="1.45" shape-rendering="geometricPrecision" transform="matrix(1,0,0,1,1369,437)" stroke-linecap="butt">
      <rect fill="none" x="-979.9096" width="9.1692" height="30" y="-421.2644" clip-path="url(#clipPath2)"/>
    </g>
    <g fill="white" text-rendering="geometricPrecision" shape-rendering="geometricPrecision" transform="matrix(1,0,0,1,1369,437)" stroke="white">
      <rect x="-968.3602" width="30" height="30" y="-421.2644" clip-path="url(#clipPath2)" stroke="none"/>
    </g>
    <g text-rendering="geometricPrecision" stroke-miterlimit="1.45" shape-rendering="geometricPrecision" font-family="sans-serif" transform="matrix(1,0,0,1,1369,437)" stroke-linecap="butt">
      <text x="-960.995" xml:space="preserve" y="-402.1101" clip-path="url(#clipPath2)" stroke="none">68</text>
      <rect fill="none" x="-968.3602" width="30" height="30" y="-421.2644" clip-path="url(#clipPath2)"/>
    </g>
    <g fill="white" text-rendering="geometricPrecision" shape-rendering="geometricPrecision" transform="matrix(1,0,0,1,1369,437)" stroke="white">
      <rect x="-936.4087" width="9.1692" height="30" y="-421.2644" clip-path="url(#clipPath2)" stroke="none"/>
    </g>
    <g text-rendering="geometricPrecision" stroke-miterlimit="1.45" shape-rendering="geometricPrecision" transform="matrix(1,0,0,1,1369,437)" stroke-linecap="butt">
      <rect fill="none" x="-936.4087" width="9.1692" height="30" y="-421.2644" clip-path="url(#clipPath2)"/>
    </g>
    <g fill="white" text-rendering="geometricPrecision" shape-rendering="geometricPrecision" transform="matrix(1,0,0,1,1369,437)" stroke="white">
      <rect x="-925.288" width="30" height="30" y="-421.2644" clip-path="url(#clipPath2)" stroke="none"/>
    </g>
    <g text-rendering="geometricPrecision" stroke-miterlimit="1.45" shape-rendering="geometricPrecision" font-family="sans-serif" transform="matrix(1,0,0,1,1369,437)" stroke-linecap="butt">
      <text x="-917.9228" xml:space="preserve" y="-402.1101" clip-path="url(#clipPath2)" stroke="none">97</text>
      <rect fill="none" x="-925.288" width="30" height="30" y="-421.2644" clip-path="url(#clipPath2)"/>
    </g>
    <g fill="white" text-rendering="geometricPrecision" shape-rendering="geometricPrecision" transform="matrix(1,0,0,1,1369,437)" stroke="white">
      <rect x="-893.3365" width="9.1692" height="30" y="-421.2644" clip-path="url(#clipPath2)" stroke="none"/>
    </g>
    <g text-rendering="geometricPrecision" stroke-miterlimit="1.45" shape-rendering="geometricPrecision" transform="matrix(1,0,0,1,1369,437)" stroke-linecap="butt">
      <rect fill="none" x="-893.3365" width="9.1692" height="30" y="-421.2644" clip-path="url(#clipPath2)"/>
      <path fill="none" d="M-1018.3972 -391.2644 L-1256.4288 -228.4892" clip-path="url(#clipPath2)"/>
      <path d="M-1263.0325 -223.9734 L-1250.3047 -226.6198 L-1255.6034 -229.0536 L-1255.9495 -234.8743 Z" clip-path="url(#clipPath2)" stroke="none"/>
      <path fill="none" d="M-975.325 -391.2644 L-1016.3923 -231.7412" clip-path="url(#clipPath2)"/>
      <path d="M-1018.3867 -223.9938 L-1010.5529 -234.3683 L-1016.1429 -232.7096 L-1020.2372 -236.8614 Z" clip-path="url(#clipPath2)" stroke="none"/>
      <path fill="none" d="M-931.8241 -391.2644 L-803.989 -230.239" clip-path="url(#clipPath2)"/>
      <path d="M-799.0148 -223.9733 L-802.56 -236.4806 L-804.6107 -231.0222 L-810.392 -230.2629 Z" clip-path="url(#clipPath2)" stroke="none"/>
      <path fill="none" d="M-888.7519 -391.2644 L-594.5708 -227.858" clip-path="url(#clipPath2)"/>
      <path d="M-587.5773 -223.9734 L-595.6397 -234.1713 L-595.445 -228.3436 L-600.4955 -225.4293 Z" clip-path="url(#clipPath2)" stroke="none"/>
    </g>
  </g>
</svg>
