<?xml version="1.0" encoding="UTF-8"?><svg xmlns="http://www.w3.org/2000/svg" xmlns:xlink="http://www.w3.org/1999/xlink" fill-opacity="1" color-rendering="auto" color-interpolation="auto" text-rendering="auto" stroke="black" stroke-linecap="square" width="1071" stroke-miterlimit="10" shape-rendering="auto" stroke-opacity="1" fill="black" stroke-dasharray="none" font-weight="normal" stroke-width="1" height="259" font-family="'Dialog'" font-style="normal" stroke-linejoin="miter" font-size="12px" stroke-dashoffset="0" image-rendering="auto">
  <!--Generated by ySVG 2.5-->
  <defs id="genericDefs"/>
  <g>
    <defs id="defs1">
      <clipPath clipPathUnits="userSpaceOnUse" id="clipPath1">
        <path d="M0 0 L1071 0 L1071 259 L0 259 L0 0 Z"/>
      </clipPath>
      <clipPath clipPathUnits="userSpaceOnUse" id="clipPath2">
        <path d="M-1509 -437 L-438 -437 L-438 -178 L-1509 -178 L-1509 -437 Z"/>
      </clipPath>
    </defs>
    <g fill="white" text-rendering="geometricPrecision" shape-rendering="geometricPrecision" transform="translate(1509,437)" stroke="white">
      <rect x="-1509" width="1071" height="259" y="-437" clip-path="url(#clipPath2)" stroke="none"/>
    </g>
    <g fill="white" text-rendering="geometricPrecision" shape-rendering="geometricPrecision" transform="matrix(1,0,0,1,1509,437)" stroke="white">
      <rect x="-1493.705" width="9.1692" height="30" y="-223.9529" clip-path="url(#clipPath2)" stroke="none"/>
    </g>
    <g text-rendering="geometricPrecision" stroke-miterlimit="1.45" shape-rendering="geometricPrecision" transform="matrix(1,0,0,1,1509,437)" stroke-linecap="butt">
      <rect fill="none" x="-1493.705" width="9.1692" height="30" y="-223.9529" clip-path="url(#clipPath2)"/>
    </g>
    <g fill="white" text-rendering="geometricPrecision" shape-rendering="geometricPrecision" transform="matrix(1,0,0,1,1509,437)" stroke="white">
      <rect x="-1439.5121" width="30" height="30" y="-223.9529" clip-path="url(#clipPath2)" stroke="none"/>
    </g>
    <g text-rendering="geometricPrecision" stroke-miterlimit="1.45" shape-rendering="geometricPrecision" font-family="sans-serif" transform="matrix(1,0,0,1,1509,437)" stroke-linecap="butt">
      <text x="-1432.1469" xml:space="preserve" y="-204.7986" clip-path="url(#clipPath2)" stroke="none">27</text>
      <rect fill="none" x="-1439.5121" width="30" height="30" y="-223.9529" clip-path="url(#clipPath2)"/>
    </g>
    <g fill="white" text-rendering="geometricPrecision" shape-rendering="geometricPrecision" transform="matrix(1,0,0,1,1509,437)" stroke="white">
      <rect x="-1482.5843" width="30" height="30" y="-223.9529" clip-path="url(#clipPath2)" stroke="none"/>
    </g>
    <g text-rendering="geometricPrecision" stroke-miterlimit="1.45" shape-rendering="geometricPrecision" font-family="sans-serif" transform="matrix(1,0,0,1,1509,437)" stroke-linecap="butt">
      <text x="-1475.219" xml:space="preserve" y="-204.7986" clip-path="url(#clipPath2)" stroke="none">25</text>
      <rect fill="none" x="-1482.5843" width="30" height="30" y="-223.9529" clip-path="url(#clipPath2)"/>
    </g>
    <g fill="white" text-rendering="geometricPrecision" shape-rendering="geometricPrecision" transform="matrix(1,0,0,1,1509,437)" stroke="white">
      <rect x="-1450.6328" width="9.1692" height="30" y="-223.9529" clip-path="url(#clipPath2)" stroke="none"/>
    </g>
    <g text-rendering="geometricPrecision" stroke-miterlimit="1.45" shape-rendering="geometricPrecision" transform="matrix(1,0,0,1,1509,437)" stroke-linecap="butt">
      <rect fill="none" x="-1450.6328" width="9.1692" height="30" y="-223.9529" clip-path="url(#clipPath2)"/>
    </g>
    <g fill="white" text-rendering="geometricPrecision" shape-rendering="geometricPrecision" transform="matrix(1,0,0,1,1509,437)" stroke="white">
      <rect x="-667.1488" width="30" height="30" y="-223.9529" clip-path="url(#clipPath2)" stroke="none"/>
    </g>
    <g text-rendering="geometricPrecision" stroke-miterlimit="1.45" shape-rendering="geometricPrecision" font-family="sans-serif" transform="matrix(1,0,0,1,1509,437)" stroke-linecap="butt">
      <text x="-663.601" xml:space="preserve" y="-204.7986" clip-path="url(#clipPath2)" stroke="none">107</text>
      <rect fill="none" x="-667.1488" width="30" height="30" y="-223.9529" clip-path="url(#clipPath2)"/>
    </g>
    <g fill="white" text-rendering="geometricPrecision" shape-rendering="geometricPrecision" transform="matrix(1,0,0,1,1509,437)" stroke="white">
      <rect x="-624.0766" width="30" height="30" y="-223.9529" clip-path="url(#clipPath2)" stroke="none"/>
    </g>
    <g text-rendering="geometricPrecision" stroke-miterlimit="1.45" shape-rendering="geometricPrecision" font-family="sans-serif" transform="matrix(1,0,0,1,1509,437)" stroke-linecap="butt">
      <text x="-620.5287" xml:space="preserve" y="-204.7986" clip-path="url(#clipPath2)" stroke="none">117</text>
      <rect fill="none" x="-624.0766" width="30" height="30" y="-223.9529" clip-path="url(#clipPath2)"/>
    </g>
    <g fill="white" text-rendering="geometricPrecision" shape-rendering="geometricPrecision" transform="matrix(1,0,0,1,1509,437)" stroke="white">
      <rect x="-635.1973" width="9.1692" height="30" y="-223.9529" clip-path="url(#clipPath2)" stroke="none"/>
    </g>
    <g text-rendering="geometricPrecision" stroke-miterlimit="1.45" shape-rendering="geometricPrecision" transform="matrix(1,0,0,1,1509,437)" stroke-linecap="butt">
      <rect fill="none" x="-635.1973" width="9.1692" height="30" y="-223.9529" clip-path="url(#clipPath2)"/>
    </g>
    <g fill="white" text-rendering="geometricPrecision" shape-rendering="geometricPrecision" transform="matrix(1,0,0,1,1509,437)" stroke="white">
      <rect x="-678.2695" width="9.1692" height="30" y="-223.9529" clip-path="url(#clipPath2)" stroke="none"/>
    </g>
    <g text-rendering="geometricPrecision" stroke-miterlimit="1.45" shape-rendering="geometricPrecision" transform="matrix(1,0,0,1,1509,437)" stroke-linecap="butt">
      <rect fill="none" x="-678.2695" width="9.1692" height="30" y="-223.9529" clip-path="url(#clipPath2)"/>
    </g>
    <g fill="white" text-rendering="geometricPrecision" shape-rendering="geometricPrecision" transform="matrix(1,0,0,1,1509,437)" stroke="white">
      <rect x="-1396.4398" width="30" height="30" y="-223.9529" clip-path="url(#clipPath2)" stroke="none"/>
    </g>
    <g text-rendering="geometricPrecision" stroke-miterlimit="1.45" shape-rendering="geometricPrecision" font-family="sans-serif" transform="matrix(1,0,0,1,1509,437)" stroke-linecap="butt">
      <text x="-1389.0746" xml:space="preserve" y="-204.7986" clip-path="url(#clipPath2)" stroke="none">42</text>
      <rect fill="none" x="-1396.4398" width="30" height="30" y="-223.9529" clip-path="url(#clipPath2)"/>
    </g>
    <g fill="white" text-rendering="geometricPrecision" shape-rendering="geometricPrecision" transform="matrix(1,0,0,1,1509,437)" stroke="white">
      <rect x="-1407.5606" width="9.1692" height="30" y="-223.9529" clip-path="url(#clipPath2)" stroke="none"/>
    </g>
    <g text-rendering="geometricPrecision" stroke-miterlimit="1.45" shape-rendering="geometricPrecision" transform="matrix(1,0,0,1,1509,437)" stroke-linecap="butt">
      <rect fill="none" x="-1407.5606" width="9.1692" height="30" y="-223.9529" clip-path="url(#clipPath2)"/>
    </g>
    <g fill="white" text-rendering="geometricPrecision" shape-rendering="geometricPrecision" transform="matrix(1,0,0,1,1509,437)" stroke="white">
      <rect x="-1353.3676" width="30" height="30" y="-223.9529" clip-path="url(#clipPath2)" stroke="none"/>
    </g>
    <g text-rendering="geometricPrecision" stroke-miterlimit="1.45" shape-rendering="geometricPrecision" font-family="sans-serif" transform="matrix(1,0,0,1,1509,437)" stroke-linecap="butt">
      <text x="-1346.0023" xml:space="preserve" y="-204.7986" clip-path="url(#clipPath2)" stroke="none">44</text>
      <rect fill="none" x="-1353.3676" width="30" height="30" y="-223.9529" clip-path="url(#clipPath2)"/>
    </g>
    <g fill="white" text-rendering="geometricPrecision" shape-rendering="geometricPrecision" transform="matrix(1,0,0,1,1509,437)" stroke="white">
      <rect x="-1364.4883" width="9.1692" height="30" y="-223.9529" clip-path="url(#clipPath2)" stroke="none"/>
    </g>
    <g text-rendering="geometricPrecision" stroke-miterlimit="1.45" shape-rendering="geometricPrecision" transform="matrix(1,0,0,1,1509,437)" stroke-linecap="butt">
      <rect fill="none" x="-1364.4883" width="9.1692" height="30" y="-223.9529" clip-path="url(#clipPath2)"/>
    </g>
    <g fill="white" text-rendering="geometricPrecision" shape-rendering="geometricPrecision" transform="matrix(1,0,0,1,1509,437)" stroke="white">
      <rect x="-1321.4161" width="9.1692" height="30" y="-223.9529" clip-path="url(#clipPath2)" stroke="none"/>
    </g>
    <g text-rendering="geometricPrecision" stroke-miterlimit="1.45" shape-rendering="geometricPrecision" transform="matrix(1,0,0,1,1509,437)" stroke-linecap="butt">
      <rect fill="none" x="-1321.4161" width="9.1692" height="30" y="-223.9529" clip-path="url(#clipPath2)"/>
    </g>
    <g fill="white" text-rendering="geometricPrecision" shape-rendering="geometricPrecision" transform="matrix(1,0,0,1,1509,437)" stroke="white">
      <rect x="-592.1251" width="9.1692" height="30" y="-223.9529" clip-path="url(#clipPath2)" stroke="none"/>
    </g>
    <g text-rendering="geometricPrecision" stroke-miterlimit="1.45" shape-rendering="geometricPrecision" transform="matrix(1,0,0,1,1509,437)" stroke-linecap="butt">
      <rect fill="none" x="-592.1251" width="9.1692" height="30" y="-223.9529" clip-path="url(#clipPath2)"/>
    </g>
    <g fill="white" text-rendering="geometricPrecision" shape-rendering="geometricPrecision" transform="matrix(1,0,0,1,1509,437)" stroke="white">
      <rect x="-537.9321" width="30" height="30" y="-223.9529" clip-path="url(#clipPath2)" stroke="none"/>
    </g>
    <g text-rendering="geometricPrecision" stroke-miterlimit="1.45" shape-rendering="geometricPrecision" transform="matrix(1,0,0,1,1509,437)" stroke-linecap="butt">
      <rect fill="none" x="-537.9321" width="30" height="30" y="-223.9529" clip-path="url(#clipPath2)"/>
    </g>
    <g fill="white" text-rendering="geometricPrecision" shape-rendering="geometricPrecision" transform="matrix(1,0,0,1,1509,437)" stroke="white">
      <rect x="-581.0044" width="30" height="30" y="-223.9529" clip-path="url(#clipPath2)" stroke="none"/>
    </g>
    <g text-rendering="geometricPrecision" stroke-miterlimit="1.45" shape-rendering="geometricPrecision" transform="matrix(1,0,0,1,1509,437)" stroke-linecap="butt">
      <rect fill="none" x="-581.0044" width="30" height="30" y="-223.9529" clip-path="url(#clipPath2)"/>
    </g>
    <g fill="white" text-rendering="geometricPrecision" shape-rendering="geometricPrecision" transform="matrix(1,0,0,1,1509,437)" stroke="white">
      <rect x="-549.0529" width="9.1692" height="30" y="-223.9529" clip-path="url(#clipPath2)" stroke="none"/>
    </g>
    <g text-rendering="geometricPrecision" stroke-miterlimit="1.45" shape-rendering="geometricPrecision" transform="matrix(1,0,0,1,1509,437)" stroke-linecap="butt">
      <rect fill="none" x="-549.0529" width="9.1692" height="30" y="-223.9529" clip-path="url(#clipPath2)"/>
    </g>
    <g fill="white" text-rendering="geometricPrecision" shape-rendering="geometricPrecision" transform="matrix(1,0,0,1,1509,437)" stroke="white">
      <rect x="-505.9806" width="9.1692" height="30" y="-223.9529" clip-path="url(#clipPath2)" stroke="none"/>
    </g>
    <g text-rendering="geometricPrecision" stroke-miterlimit="1.45" shape-rendering="geometricPrecision" transform="matrix(1,0,0,1,1509,437)" stroke-linecap="butt">
      <rect fill="none" x="-505.9806" width="9.1692" height="30" y="-223.9529" clip-path="url(#clipPath2)"/>
    </g>
    <g fill="white" text-rendering="geometricPrecision" shape-rendering="geometricPrecision" transform="matrix(1,0,0,1,1509,437)" stroke="white">
      <rect x="-1194.847" width="30" height="30" y="-223.9529" clip-path="url(#clipPath2)" stroke="none"/>
    </g>
    <g text-rendering="geometricPrecision" stroke-miterlimit="1.45" shape-rendering="geometricPrecision" font-family="sans-serif" transform="matrix(1,0,0,1,1509,437)" stroke-linecap="butt">
      <text x="-1187.4818" xml:space="preserve" y="-204.7986" clip-path="url(#clipPath2)" stroke="none">61</text>
      <rect fill="none" x="-1194.847" width="30" height="30" y="-223.9529" clip-path="url(#clipPath2)"/>
    </g>
    <g fill="white" text-rendering="geometricPrecision" shape-rendering="geometricPrecision" transform="matrix(1,0,0,1,1509,437)" stroke="white">
      <rect x="-1237.9192" width="30" height="30" y="-223.9529" clip-path="url(#clipPath2)" stroke="none"/>
    </g>
    <g text-rendering="geometricPrecision" stroke-miterlimit="1.45" shape-rendering="geometricPrecision" font-family="sans-serif" transform="matrix(1,0,0,1,1509,437)" stroke-linecap="butt">
      <text x="-1230.554" xml:space="preserve" y="-204.7986" clip-path="url(#clipPath2)" stroke="none">57</text>
      <rect fill="none" x="-1237.9192" width="30" height="30" y="-223.9529" clip-path="url(#clipPath2)"/>
    </g>
    <g fill="white" text-rendering="geometricPrecision" shape-rendering="geometricPrecision" transform="matrix(1,0,0,1,1509,437)" stroke="white">
      <rect x="-1249.0399" width="9.1692" height="30" y="-223.9529" clip-path="url(#clipPath2)" stroke="none"/>
    </g>
    <g text-rendering="geometricPrecision" stroke-miterlimit="1.45" shape-rendering="geometricPrecision" transform="matrix(1,0,0,1,1509,437)" stroke-linecap="butt">
      <rect fill="none" x="-1249.0399" width="9.1692" height="30" y="-223.9529" clip-path="url(#clipPath2)"/>
    </g>
    <g fill="white" text-rendering="geometricPrecision" shape-rendering="geometricPrecision" transform="matrix(1,0,0,1,1509,437)" stroke="white">
      <rect x="-1205.9677" width="9.1692" height="30" y="-223.9529" clip-path="url(#clipPath2)" stroke="none"/>
    </g>
    <g text-rendering="geometricPrecision" stroke-miterlimit="1.45" shape-rendering="geometricPrecision" transform="matrix(1,0,0,1,1509,437)" stroke-linecap="butt">
      <rect fill="none" x="-1205.9677" width="9.1692" height="30" y="-223.9529" clip-path="url(#clipPath2)"/>
    </g>
    <g fill="white" text-rendering="geometricPrecision" shape-rendering="geometricPrecision" transform="matrix(1,0,0,1,1509,437)" stroke="white">
      <rect x="-1162.8955" width="9.1692" height="30" y="-223.9529" clip-path="url(#clipPath2)" stroke="none"/>
    </g>
    <g text-rendering="geometricPrecision" stroke-miterlimit="1.45" shape-rendering="geometricPrecision" transform="matrix(1,0,0,1,1509,437)" stroke-linecap="butt">
      <rect fill="none" x="-1162.8955" width="9.1692" height="30" y="-223.9529" clip-path="url(#clipPath2)"/>
    </g>
    <g fill="white" text-rendering="geometricPrecision" shape-rendering="geometricPrecision" transform="matrix(1,0,0,1,1509,437)" stroke="white">
      <rect x="-1151.3461" width="30" height="30" y="-223.9529" clip-path="url(#clipPath2)" stroke="none"/>
    </g>
    <g text-rendering="geometricPrecision" stroke-miterlimit="1.45" shape-rendering="geometricPrecision" font-family="sans-serif" transform="matrix(1,0,0,1,1509,437)" stroke-linecap="butt">
      <text x="-1143.9808" xml:space="preserve" y="-204.7986" clip-path="url(#clipPath2)" stroke="none">68</text>
      <rect fill="none" x="-1151.3461" width="30" height="30" y="-223.9529" clip-path="url(#clipPath2)"/>
    </g>
    <g fill="white" text-rendering="geometricPrecision" shape-rendering="geometricPrecision" transform="matrix(1,0,0,1,1509,437)" stroke="white">
      <rect x="-1119.3946" width="9.1692" height="30" y="-223.9529" clip-path="url(#clipPath2)" stroke="none"/>
    </g>
    <g text-rendering="geometricPrecision" stroke-miterlimit="1.45" shape-rendering="geometricPrecision" transform="matrix(1,0,0,1,1509,437)" stroke-linecap="butt">
      <rect fill="none" x="-1119.3946" width="9.1692" height="30" y="-223.9529" clip-path="url(#clipPath2)"/>
    </g>
    <g fill="white" text-rendering="geometricPrecision" shape-rendering="geometricPrecision" transform="matrix(1,0,0,1,1509,437)" stroke="white">
      <rect x="-1108.2739" width="30" height="30" y="-223.9529" clip-path="url(#clipPath2)" stroke="none"/>
    </g>
    <g text-rendering="geometricPrecision" stroke-miterlimit="1.45" shape-rendering="geometricPrecision" transform="matrix(1,0,0,1,1509,437)" stroke-linecap="butt">
      <rect fill="none" x="-1108.2739" width="30" height="30" y="-223.9529" clip-path="url(#clipPath2)"/>
    </g>
    <g fill="white" text-rendering="geometricPrecision" shape-rendering="geometricPrecision" transform="matrix(1,0,0,1,1509,437)" stroke="white">
      <rect x="-1076.3224" width="9.1692" height="30" y="-223.9529" clip-path="url(#clipPath2)" stroke="none"/>
    </g>
    <g text-rendering="geometricPrecision" stroke-miterlimit="1.45" shape-rendering="geometricPrecision" transform="matrix(1,0,0,1,1509,437)" stroke-linecap="butt">
      <rect fill="none" x="-1076.3224" width="9.1692" height="30" y="-223.9529" clip-path="url(#clipPath2)"/>
    </g>
    <g fill="white" text-rendering="geometricPrecision" shape-rendering="geometricPrecision" transform="matrix(1,0,0,1,1509,437)" stroke="white">
      <rect x="-968.3602" width="9.1692" height="30" y="-223.9529" clip-path="url(#clipPath2)" stroke="none"/>
    </g>
    <g text-rendering="geometricPrecision" stroke-miterlimit="1.45" shape-rendering="geometricPrecision" transform="matrix(1,0,0,1,1509,437)" stroke-linecap="butt">
      <rect fill="none" x="-968.3602" width="9.1692" height="30" y="-223.9529" clip-path="url(#clipPath2)"/>
    </g>
    <g fill="white" text-rendering="geometricPrecision" shape-rendering="geometricPrecision" transform="matrix(1,0,0,1,1509,437)" stroke="white">
      <rect x="-914.1673" width="30" height="30" y="-223.9529" clip-path="url(#clipPath2)" stroke="none"/>
    </g>
    <g text-rendering="geometricPrecision" stroke-miterlimit="1.45" shape-rendering="geometricPrecision" font-family="sans-serif" transform="matrix(1,0,0,1,1509,437)" stroke-linecap="butt">
      <text x="-906.8021" xml:space="preserve" y="-204.7986" clip-path="url(#clipPath2)" stroke="none">87</text>
      <rect fill="none" x="-914.1673" width="30" height="30" y="-223.9529" clip-path="url(#clipPath2)"/>
    </g>
    <g fill="white" text-rendering="geometricPrecision" shape-rendering="geometricPrecision" transform="matrix(1,0,0,1,1509,437)" stroke="white">
      <rect x="-957.2395" width="30" height="30" y="-223.9529" clip-path="url(#clipPath2)" stroke="none"/>
    </g>
    <g text-rendering="geometricPrecision" stroke-miterlimit="1.45" shape-rendering="geometricPrecision" font-family="sans-serif" transform="matrix(1,0,0,1,1509,437)" stroke-linecap="butt">
      <text x="-949.8743" xml:space="preserve" y="-204.7986" clip-path="url(#clipPath2)" stroke="none">72</text>
      <rect fill="none" x="-957.2395" width="30" height="30" y="-223.9529" clip-path="url(#clipPath2)"/>
    </g>
    <g fill="white" text-rendering="geometricPrecision" shape-rendering="geometricPrecision" transform="matrix(1,0,0,1,1509,437)" stroke="white">
      <rect x="-925.288" width="9.1692" height="30" y="-223.9529" clip-path="url(#clipPath2)" stroke="none"/>
    </g>
    <g text-rendering="geometricPrecision" stroke-miterlimit="1.45" shape-rendering="geometricPrecision" transform="matrix(1,0,0,1,1509,437)" stroke-linecap="butt">
      <rect fill="none" x="-925.288" width="9.1692" height="30" y="-223.9529" clip-path="url(#clipPath2)"/>
    </g>
    <g fill="white" text-rendering="geometricPrecision" shape-rendering="geometricPrecision" transform="matrix(1,0,0,1,1509,437)" stroke="white">
      <rect x="-882.2158" width="9.1692" height="30" y="-223.9529" clip-path="url(#clipPath2)" stroke="none"/>
    </g>
    <g text-rendering="geometricPrecision" stroke-miterlimit="1.45" shape-rendering="geometricPrecision" transform="matrix(1,0,0,1,1509,437)" stroke-linecap="butt">
      <rect fill="none" x="-882.2158" width="9.1692" height="30" y="-223.9529" clip-path="url(#clipPath2)"/>
    </g>
    <g fill="white" text-rendering="geometricPrecision" shape-rendering="geometricPrecision" transform="matrix(1,0,0,1,1509,437)" stroke="white">
      <rect x="-828.0228" width="30" height="30" y="-223.9529" clip-path="url(#clipPath2)" stroke="none"/>
    </g>
    <g text-rendering="geometricPrecision" stroke-miterlimit="1.45" shape-rendering="geometricPrecision" font-family="sans-serif" transform="matrix(1,0,0,1,1509,437)" stroke-linecap="butt">
      <text x="-820.6576" xml:space="preserve" y="-204.7986" clip-path="url(#clipPath2)" stroke="none">97</text>
      <rect fill="none" x="-828.0228" width="30" height="30" y="-223.9529" clip-path="url(#clipPath2)"/>
    </g>
    <g fill="white" text-rendering="geometricPrecision" shape-rendering="geometricPrecision" transform="matrix(1,0,0,1,1509,437)" stroke="white">
      <rect x="-871.0951" width="30" height="30" y="-223.9529" clip-path="url(#clipPath2)" stroke="none"/>
    </g>
    <g text-rendering="geometricPrecision" stroke-miterlimit="1.45" shape-rendering="geometricPrecision" font-family="sans-serif" transform="matrix(1,0,0,1,1509,437)" stroke-linecap="butt">
      <text x="-863.7299" xml:space="preserve" y="-204.7986" clip-path="url(#clipPath2)" stroke="none">92</text>
      <rect fill="none" x="-871.0951" width="30" height="30" y="-223.9529" clip-path="url(#clipPath2)"/>
    </g>
    <g fill="white" text-rendering="geometricPrecision" shape-rendering="geometricPrecision" transform="matrix(1,0,0,1,1509,437)" stroke="white">
      <rect x="-839.1436" width="9.1692" height="30" y="-223.9529" clip-path="url(#clipPath2)" stroke="none"/>
    </g>
    <g text-rendering="geometricPrecision" stroke-miterlimit="1.45" shape-rendering="geometricPrecision" transform="matrix(1,0,0,1,1509,437)" stroke-linecap="butt">
      <rect fill="none" x="-839.1436" width="9.1692" height="30" y="-223.9529" clip-path="url(#clipPath2)"/>
    </g>
    <g fill="white" text-rendering="geometricPrecision" shape-rendering="geometricPrecision" transform="matrix(1,0,0,1,1509,437)" stroke="white">
      <rect x="-796.0713" width="9.1692" height="30" y="-223.9529" clip-path="url(#clipPath2)" stroke="none"/>
    </g>
    <g text-rendering="geometricPrecision" stroke-miterlimit="1.45" shape-rendering="geometricPrecision" transform="matrix(1,0,0,1,1509,437)" stroke-linecap="butt">
      <rect fill="none" x="-796.0713" width="9.1692" height="30" y="-223.9529" clip-path="url(#clipPath2)"/>
    </g>
    <g fill="white" text-rendering="geometricPrecision" shape-rendering="geometricPrecision" transform="matrix(1,0,0,1,1509,437)" stroke="white">
      <rect x="-1011.8611" width="30" height="30" y="-421.2644" clip-path="url(#clipPath2)" stroke="none"/>
    </g>
    <g text-rendering="geometricPrecision" stroke-miterlimit="1.45" shape-rendering="geometricPrecision" font-family="sans-serif" transform="matrix(1,0,0,1,1509,437)" stroke-linecap="butt">
      <text x="-1004.4959" xml:space="preserve" y="-402.1101" clip-path="url(#clipPath2)" stroke="none">50</text>
      <rect fill="none" x="-1011.8611" width="30" height="30" y="-421.2644" clip-path="url(#clipPath2)"/>
    </g>
    <g fill="white" text-rendering="geometricPrecision" shape-rendering="geometricPrecision" transform="matrix(1,0,0,1,1509,437)" stroke="white">
      <rect x="-882.2158" width="30" height="30" y="-421.2644" clip-path="url(#clipPath2)" stroke="none"/>
    </g>
    <g text-rendering="geometricPrecision" stroke-miterlimit="1.45" shape-rendering="geometricPrecision" transform="matrix(1,0,0,1,1509,437)" stroke-linecap="butt">
      <rect fill="none" x="-882.2158" width="30" height="30" y="-421.2644" clip-path="url(#clipPath2)"/>
    </g>
    <g fill="white" text-rendering="geometricPrecision" shape-rendering="geometricPrecision" transform="matrix(1,0,0,1,1509,437)" stroke="white">
      <rect x="-850.2643" width="9.1692" height="30" y="-421.2644" clip-path="url(#clipPath2)" stroke="none"/>
    </g>
    <g text-rendering="geometricPrecision" stroke-miterlimit="1.45" shape-rendering="geometricPrecision" transform="matrix(1,0,0,1,1509,437)" stroke-linecap="butt">
      <rect fill="none" x="-850.2643" width="9.1692" height="30" y="-421.2644" clip-path="url(#clipPath2)"/>
    </g>
    <g fill="white" text-rendering="geometricPrecision" shape-rendering="geometricPrecision" transform="matrix(1,0,0,1,1509,437)" stroke="white">
      <rect x="-1022.9818" width="9.1692" height="30" y="-421.2644" clip-path="url(#clipPath2)" stroke="none"/>
    </g>
    <g text-rendering="geometricPrecision" stroke-miterlimit="1.45" shape-rendering="geometricPrecision" transform="matrix(1,0,0,1,1509,437)" stroke-linecap="butt">
      <rect fill="none" x="-1022.9818" width="9.1692" height="30" y="-421.2644" clip-path="url(#clipPath2)"/>
    </g>
    <g fill="white" text-rendering="geometricPrecision" shape-rendering="geometricPrecision" transform="matrix(1,0,0,1,1509,437)" stroke="white">
      <rect x="-979.9096" width="9.1692" height="30" y="-421.2644" clip-path="url(#clipPath2)" stroke="none"/>
    </g>
    <g text-rendering="geometricPrecision" stroke-miterlimit="1.45" shape-rendering="geometricPrecision" transform="matrix(1,0,0,1,1509,437)" stroke-linecap="butt">
      <rect fill="none" x="-979.9096" width="9.1692" height="30" y="-421.2644" clip-path="url(#clipPath2)"/>
    </g>
    <g fill="white" text-rendering="geometricPrecision" shape-rendering="geometricPrecision" transform="matrix(1,0,0,1,1509,437)" stroke="white">
      <rect x="-968.3602" width="30" height="30" y="-421.2644" clip-path="url(#clipPath2)" stroke="none"/>
    </g>
    <g text-rendering="geometricPrecision" stroke-miterlimit="1.45" shape-rendering="geometricPrecision" font-family="sans-serif" transform="matrix(1,0,0,1,1509,437)" stroke-linecap="butt">
      <text x="-960.995" xml:space="preserve" y="-402.1101" clip-path="url(#clipPath2)" stroke="none">70</text>
      <rect fill="none" x="-968.3602" width="30" height="30" y="-421.2644" clip-path="url(#clipPath2)"/>
    </g>
    <g fill="white" text-rendering="geometricPrecision" shape-rendering="geometricPrecision" transform="matrix(1,0,0,1,1509,437)" stroke="white">
      <rect x="-936.4087" width="9.1692" height="30" y="-421.2644" clip-path="url(#clipPath2)" stroke="none"/>
    </g>
    <g text-rendering="geometricPrecision" stroke-miterlimit="1.45" shape-rendering="geometricPrecision" transform="matrix(1,0,0,1,1509,437)" stroke-linecap="butt">
      <rect fill="none" x="-936.4087" width="9.1692" height="30" y="-421.2644" clip-path="url(#clipPath2)"/>
    </g>
    <g fill="white" text-rendering="geometricPrecision" shape-rendering="geometricPrecision" transform="matrix(1,0,0,1,1509,437)" stroke="white">
      <rect x="-925.288" width="30" height="30" y="-421.2644" clip-path="url(#clipPath2)" stroke="none"/>
    </g>
    <g text-rendering="geometricPrecision" stroke-miterlimit="1.45" shape-rendering="geometricPrecision" font-family="sans-serif" transform="matrix(1,0,0,1,1509,437)" stroke-linecap="butt">
      <text x="-921.7402" xml:space="preserve" y="-402.1101" clip-path="url(#clipPath2)" stroke="none">100</text>
      <rect fill="none" x="-925.288" width="30" height="30" y="-421.2644" clip-path="url(#clipPath2)"/>
    </g>
    <g fill="white" text-rendering="geometricPrecision" shape-rendering="geometricPrecision" transform="matrix(1,0,0,1,1509,437)" stroke="white">
      <rect x="-893.3365" width="9.1692" height="30" y="-421.2644" clip-path="url(#clipPath2)" stroke="none"/>
    </g>
    <g text-rendering="geometricPrecision" stroke-miterlimit="1.45" shape-rendering="geometricPrecision" transform="matrix(1,0,0,1,1509,437)" stroke-linecap="butt">
      <rect fill="none" x="-893.3365" width="9.1692" height="30" y="-421.2644" clip-path="url(#clipPath2)"/>
    </g>
    <g fill="white" text-rendering="geometricPrecision" shape-rendering="geometricPrecision" transform="matrix(1,0,0,1,1509,437)" stroke="white">
      <rect x="-1309.0399" width="30" height="30" y="-223.9529" clip-path="url(#clipPath2)" stroke="none"/>
    </g>
    <g text-rendering="geometricPrecision" stroke-miterlimit="1.45" shape-rendering="geometricPrecision" font-family="sans-serif" transform="matrix(1,0,0,1,1509,437)" stroke-linecap="butt">
      <text x="-1301.6747" xml:space="preserve" y="-204.7986" clip-path="url(#clipPath2)" stroke="none">47</text>
      <rect fill="none" x="-1309.0399" width="30" height="30" y="-223.9529" clip-path="url(#clipPath2)"/>
    </g>
    <g fill="white" text-rendering="geometricPrecision" shape-rendering="geometricPrecision" transform="matrix(1,0,0,1,1509,437)" stroke="white">
      <rect x="-1277.0885" width="9.1692" height="30" y="-223.9529" clip-path="url(#clipPath2)" stroke="none"/>
    </g>
    <g text-rendering="geometricPrecision" stroke-miterlimit="1.45" shape-rendering="geometricPrecision" transform="matrix(1,0,0,1,1509,437)" stroke-linecap="butt">
      <rect fill="none" x="-1277.0885" width="9.1692" height="30" y="-223.9529" clip-path="url(#clipPath2)"/>
    </g>
    <g fill="white" text-rendering="geometricPrecision" shape-rendering="geometricPrecision" transform="matrix(1,0,0,1,1509,437)" stroke="white">
      <rect x="-1065.2017" width="30" height="30" y="-223.9529" clip-path="url(#clipPath2)" stroke="none"/>
    </g>
    <g text-rendering="geometricPrecision" stroke-miterlimit="1.45" shape-rendering="geometricPrecision" transform="matrix(1,0,0,1,1509,437)" stroke-linecap="butt">
      <rect fill="none" x="-1065.2017" width="30" height="30" y="-223.9529" clip-path="url(#clipPath2)"/>
    </g>
    <g fill="white" text-rendering="geometricPrecision" shape-rendering="geometricPrecision" transform="matrix(1,0,0,1,1509,437)" stroke="white">
      <rect x="-1033.2502" width="9.1692" height="30" y="-223.9529" clip-path="url(#clipPath2)" stroke="none"/>
    </g>
    <g text-rendering="geometricPrecision" stroke-miterlimit="1.45" shape-rendering="geometricPrecision" transform="matrix(1,0,0,1,1509,437)" stroke-linecap="butt">
      <rect fill="none" x="-1033.2502" width="9.1692" height="30" y="-223.9529" clip-path="url(#clipPath2)"/>
    </g>
    <g fill="white" text-rendering="geometricPrecision" shape-rendering="geometricPrecision" transform="matrix(1,0,0,1,1509,437)" stroke="white">
      <rect x="-784.9506" width="30" height="30" y="-223.9529" clip-path="url(#clipPath2)" stroke="none"/>
    </g>
    <g text-rendering="geometricPrecision" stroke-miterlimit="1.45" shape-rendering="geometricPrecision" transform="matrix(1,0,0,1,1509,437)" stroke-linecap="butt">
      <rect fill="none" x="-784.9506" width="30" height="30" y="-223.9529" clip-path="url(#clipPath2)"/>
    </g>
    <g fill="white" text-rendering="geometricPrecision" shape-rendering="geometricPrecision" transform="matrix(1,0,0,1,1509,437)" stroke="white">
      <rect x="-752.9991" width="9.1692" height="30" y="-223.9529" clip-path="url(#clipPath2)" stroke="none"/>
    </g>
    <g text-rendering="geometricPrecision" stroke-miterlimit="1.45" shape-rendering="geometricPrecision" transform="matrix(1,0,0,1,1509,437)" stroke-linecap="butt">
      <rect fill="none" x="-752.9991" width="9.1692" height="30" y="-223.9529" clip-path="url(#clipPath2)"/>
    </g>
    <g fill="white" text-rendering="geometricPrecision" shape-rendering="geometricPrecision" transform="matrix(1,0,0,1,1509,437)" stroke="white">
      <rect x="-494.8599" width="30" height="30" y="-223.9529" clip-path="url(#clipPath2)" stroke="none"/>
    </g>
    <g text-rendering="geometricPrecision" stroke-miterlimit="1.45" shape-rendering="geometricPrecision" transform="matrix(1,0,0,1,1509,437)" stroke-linecap="butt">
      <rect fill="none" x="-494.8599" width="30" height="30" y="-223.9529" clip-path="url(#clipPath2)"/>
    </g>
    <g fill="white" text-rendering="geometricPrecision" shape-rendering="geometricPrecision" transform="matrix(1,0,0,1,1509,437)" stroke="white">
      <rect x="-462.9084" width="9.1692" height="30" y="-223.9529" clip-path="url(#clipPath2)" stroke="none"/>
    </g>
    <g text-rendering="geometricPrecision" stroke-miterlimit="1.45" shape-rendering="geometricPrecision" transform="matrix(1,0,0,1,1509,437)" stroke-linecap="butt">
      <rect fill="none" x="-462.9084" width="9.1692" height="30" y="-223.9529" clip-path="url(#clipPath2)"/>
      <path fill="none" d="M-1018.3972 -391.2644 L-1395.6166 -227.1546" clip-path="url(#clipPath2)"/>
      <path d="M-1402.9524 -223.9632 L-1389.954 -224.1654 L-1394.6996 -227.5535 L-1393.9432 -233.3352 Z" clip-path="url(#clipPath2)" stroke="none"/>
      <path fill="none" d="M-975.325 -391.2644 L-1152.3845 -229.3717" clip-path="url(#clipPath2)"/>
      <path d="M-1158.2886 -223.9733 L-1146.0585 -228.3808 L-1151.6465 -230.0465 L-1152.8064 -235.7609 Z" clip-path="url(#clipPath2)" stroke="none"/>
      <path fill="none" d="M-931.8241 -391.2644 L-880.1096 -231.6045" clip-path="url(#clipPath2)"/>
      <path d="M-877.6444 -223.9938 L-876.5854 -236.9506 L-880.4177 -232.5558 L-886.0988 -233.8691 Z" clip-path="url(#clipPath2)" stroke="none"/>
      <path fill="none" d="M-888.7519 -391.2644 L-594.5708 -227.858" clip-path="url(#clipPath2)"/>
      <path d="M-587.5773 -223.9734 L-595.6397 -234.1713 L-595.445 -228.3436 L-600.4955 -225.4293 Z" clip-path="url(#clipPath2)" stroke="none"/>
    </g>
  </g>
</svg>
